<?xml version="1.0" standalone="no"?>
<!DOCTYPE svg PUBLIC "-//W3C//DTD SVG 20010904//EN"
 "http://www.w3.org/TR/2001/REC-SVG-20010904/DTD/svg10.dtd">
<svg version="1.0" xmlns="http://www.w3.org/2000/svg"
 width="512.000000pt" height="512.000000pt" viewBox="0 0 512.000000 512.000000"
 preserveAspectRatio="xMidYMid meet">
<metadata>
Created by potrace 1.11, written by Peter Selinger 2001-2013
</metadata>
<g transform="translate(0.000000,512.000000) scale(0.100000,-0.100000)"
fill="#000000" stroke="none">
<path d="M2420 4944 c-212 -56 -381 -223 -434 -430 -32 -123 -11 -282 52 -399
36 -65 134 -170 200 -212 l52 -34 0 -89 0 -90 -715 -2 c-670 -3 -715 -4 -732
-21 -16 -16 -18 -38 -18 -183 0 -152 2 -167 19 -180 17 -12 132 -14 728 -14
l709 0 -6 -162 c-3 -90 -12 -503 -20 -918 -16 -848 -22 -1009 -36 -1062 -39
-150 -225 -160 -494 -28 -157 77 -279 192 -305 287 -15 50 -8 129 14 171 9 17
32 47 52 68 52 56 57 68 36 92 -9 11 -57 37 -107 57 -226 93 -420 241 -670
513 -75 83 -146 152 -156 155 -30 8 -57 -22 -83 -93 -77 -208 -70 -460 19
-710 43 -120 226 -471 252 -483 17 -7 29 -5 56 12 20 12 51 21 74 21 38 0 42
-3 105 -87 169 -227 354 -396 574 -529 133 -80 241 -126 535 -230 270 -95 301
-109 376 -165 29 -22 59 -39 68 -39 9 0 35 15 58 34 64 51 124 78 368 162 345
118 514 200 709 345 116 85 285 253 373 367 106 140 122 155 155 148 15 -4 46
-17 69 -29 l43 -22 24 25 c14 14 65 104 115 201 138 272 191 461 191 678 0
124 -15 210 -50 305 -27 71 -52 98 -79 88 -11 -4 -102 -92 -202 -195 -275
-285 -409 -384 -638 -477 -127 -52 -135 -67 -72 -129 135 -132 114 -297 -54
-431 -160 -128 -438 -229 -547 -200 -51 14 -93 52 -113 102 -21 53 -22 86 -40
993 -8 413 -17 843 -21 958 l-6 207 706 0 c469 0 714 3 727 10 18 10 19 23 19
185 0 144 -3 176 -16 189 -14 14 -94 16 -730 16 l-714 0 0 93 0 93 40 23 c104
58 210 188 252 308 48 142 22 353 -62 483 -69 107 -195 200 -338 249 -75 25
-226 28 -312 5z m241 -463 c36 -35 39 -43 39 -92 0 -67 -24 -109 -75 -133 -76
-36 -160 -1 -191 79 -22 59 -8 110 41 154 31 27 43 31 92 31 51 0 58 -3 94
-39z"/>
</g>
</svg>
